<?xml version="1.0" standalone="no"?>
<!DOCTYPE svg PUBLIC "-//W3C//DTD SVG 20010904//EN"
 "http://www.w3.org/TR/2001/REC-SVG-20010904/DTD/svg10.dtd">
<svg version="1.0" xmlns="http://www.w3.org/2000/svg"
 width="161.000000pt" height="50.000000pt" viewBox="0 0 161.000000 50.000000"
 preserveAspectRatio="xMidYMid meet">
<metadata>
Created by potrace 1.10, written by Peter Selinger 2001-2011
</metadata>
<g transform="translate(0.000000,50.000000) scale(0.050000,-0.050000)"
fill="#a64d79" stroke="none">
<path d="M1825 855 c-33 -40 -29 -686 4 -714 18 -15 214 -20 623 -16 l598 5 0
370 0 370 -602 5 c-467 4 -607 0 -623 -20z m195 -205 c0 -66 2 -68 47 -48 104
48 161 -33 149 -213 -10 -165 -84 -143 -92 27 -9 191 -91 181 -100 -12 -6
-117 -9 -126 -50 -120 -42 6 -44 17 -50 221 l-5 215 50 0 c45 0 51 -8 51 -70z
m720 2 c0 -68 1 -68 59 -46 132 50 223 -167 118 -280 -45 -47 -125 -62 -147
-26 -7 12 -26 10 -50 -5 -54 -33 -55 -30 -63 210 -8 213 -8 215 37 215 39 0
46 -11 46 -68z m-364 -167 c6 -118 9 -125 55 -125 46 0 49 6 49 117 0 130 6
143 61 128 34 -8 39 -28 39 -156 0 -146 -20 -191 -67 -152 -15 13 -35 14 -54
2 -101 -64 -179 15 -179 182 0 120 10 144 59 134 23 -4 32 -37 37 -130z"/>
<path d="M2749 491 c-19 -74 7 -134 56 -127 62 9 88 63 59 124 -30 68 -99 69
-115 3z"/>
<path d="M211 721 c-5 -8 27 -67 71 -132 67 -101 79 -133 74 -209 -4 -80 0
-91 40 -96 40 -6 44 1 44 90 0 77 14 119 68 201 38 57 74 113 82 124 7 13 -11
21 -46 21 -48 0 -64 -13 -94 -80 -45 -99 -55 -99 -99 -2 -33 73 -116 122 -140
83z"/>
<path d="M640 582 c-42 -35 -45 -44 -20 -61 19 -12 37 -12 49 0 29 29 111 23
111 -9 0 -18 -31 -34 -81 -42 -104 -18 -146 -87 -89 -150 40 -44 110 -52 145
-17 18 18 31 17 53 -2 51 -42 63 -10 52 136 -12 160 -12 161 -103 176 -51 8
-80 0 -117 -31z m140 -190 c0 -35 -60 -60 -86 -34 -10 10 -12 28 -5 40 19 32
91 27 91 -6z"/>
<path d="M1064 603 c-15 -9 -49 -13 -75 -8 -49 10 -49 9 -49 -153 0 -147 4
-162 39 -162 34 0 40 16 45 125 9 192 91 201 100 11 8 -164 85 -196 87 -36 3
156 5 163 54 156 41 -5 45 -18 47 -126 3 -190 75 -178 84 14 7 159 -47 225
-148 179 -35 -16 -62 -17 -88 -3 -45 24 -62 25 -96 3z"/>
<path d="M1450 565 c110 -271 118 -325 48 -325 -25 0 -38 -14 -38 -40 0 -28
13 -40 45 -40 84 1 93 13 203 308 l50 132 -46 0 c-38 0 -51 -16 -72 -91 -35
-124 -52 -126 -82 -9 -22 85 -33 100 -74 100 -38 0 -45 -7 -34 -35z"/>
</g>
</svg>
